<svg version="1" xmlns="http://www.w3.org/2000/svg" width="933.333" height="933.333" viewBox="0 0 700.000000 700.000000"><path d="M514.1 64.4c-1 1.7-4.2 7.6-7.1 13.1-2.9 5.5-7 13.1-9 17-2.1 3.8-8.1 15.5-13.5 26-5.4 10.4-12.8 24.8-16.5 32-3.7 7.1-11.6 22.4-17.5 34-5.9 11.5-13.1 25.5-16 31-2.9 5.5-9.4 18.1-14.5 28-5.1 9.9-10.1 19.5-11.2 21.2-1.1 1.8-1.6 3.3-1.3 3.3.4 0 .2.7-.5 1.5s-3.5 5.9-6.2 11.2c-2.8 5.4-8.8 17.2-13.5 26.3-12.7 24.5-22.1 42.6-31.3 60.5-17 33.1-20.4 39.2-26.4 48-6.3 9.2-16.9 20.8-24.2 26.3-5.6 4.3-17.9 9.9-23.4 10.7-24.5 3.8-52.2-8.8-65.9-29.9-25.2-38.6-7.1-86.8 37.5-100.2 7.4-2.3 25.6-2.5 32.9-.5 6.5 1.8 18.3 7.6 21.5 10.5 1.4 1.3 3.6 3.1 5 3.9l2.5 1.6 8.9-17.2c14.1-27.5 29.2-57 37.6-73.2 19.3-37.3 28.6-55.5 31.6-61.5l3.2-6.4-5.6-3.3c-24.8-14.1-50.5-24.3-72.7-28.8-4.4-.9-8.8-1.8-9.7-2-.9-.2-5.2-.7-9.5-1-4.3-.4-8.7-.9-9.8-1.1-3.1-.6-26.4-.6-31.5 0-2.5.3-7.4.8-11 1.1-3.6.3-7.2.7-8 1-1.6.5-5.6 1.2-11 2.1-11.1 1.7-36.3 9.5-52 15.9-17.4 7.2-42.9 21.8-53.9 31-27.2 22.5-38.9 36-56.8 65-3.8 6-12.9 24.3-17.1 34-6.7 15.5-12.5 36-15.8 55.5-1.8 10.8-2.6 48.1-1.2 58 12 85.9 58.2 152 133.3 190.2 27.8 14.2 55 22.2 86.5 25.5 13.7 1.4 56.9.7 59.8-1.1.4-.2 3-.7 5.7-1 8.4-1.2 28.1-6.5 38.8-10.5 31.5-11.8 56-27.5 79.2-50.6 12.7-12.7 16.9-17.2 22.5-24.5 1.9-2.5 4-5 4.6-5.7 2.6-2.7 17.5-25.5 23.1-35.3 3.3-5.8 11.3-20.9 17.8-33.5 6.5-12.7 14.7-28.6 18.4-35.5 3.6-6.9 6.6-12.7 6.6-13 .1-.3.9-2.1 1.9-4 9.6-18.2 13.7-26.2 22.6-43.5 13.5-26.4 26.6-51.8 35.5-69 4-7.7 13.7-26.6 21.5-42 7.9-15.4 17.1-33.4 20.5-40 16-30.9 38.7-75.7 38.3-75.9-.1-.2-9.3-4.9-20.3-10.6-11-5.7-23.6-12.2-28-14.5-16.5-8.7-64-33.2-93.2-48.1L516 61.2l-1.9 3.2z"/></svg>