<?xml version="1.0" standalone="no"?>
<!DOCTYPE svg PUBLIC "-//W3C//DTD SVG 20010904//EN"
 "http://www.w3.org/TR/2001/REC-SVG-20010904/DTD/svg10.dtd">
<svg version="1.0" xmlns="http://www.w3.org/2000/svg"
 width="512pt" height="512pt" viewBox="0 0 1240.000000 1224.000000">

<g transform="translate(0.000000,1224.000000) scale(0.100000,-0.100000)"
fill="#000000" stroke="none">
<path d="M7589 8259 c-843 -1640 -1565 -3037 -1602 -3103 -132 -232 -263 -409
-414 -558 -319 -316 -662 -414 -1051 -302 -182 52 -397 174 -533 301 -131 124
-250 314 -308 493 -48 147 -63 255 -58 410 8 200 38 312 134 490 172 320 454
527 826 607 129 28 353 23 478 -10 179 -47 335 -129 451 -236 38 -35 71 -61
74 -58 8 7 1444 2800 1444 2807 0 11 -374 217 -505 277 -487 226 -937 341
-1465 374 -919 57 -2026 -273 -2795 -834 -557 -406 -965 -900 -1290 -1562
-231 -470 -359 -892 -422 -1393 -24 -190 -24 -690 0 -882 91 -725 339 -1393
734 -1975 241 -355 601 -726 963 -992 623 -458 1294 -737 2010 -838 1041 -146
2015 61 2835 601 241 158 417 304 651 538 358 359 642 746 912 1242 135 248
3182 6178 3179 6187 -3 9 -2665 1384 -2698 1394 -11 3 -376 -697 -1550 -2978z"/>
</g>
</svg>
